# Blender v3.1.2 OBJ File: ''
# www.blender.org
mtllib Cylinder.mtl
o Cylinder
v -2.024118 -0.703550 3.217072
v -0.976060 0.414182 1.931673
v -1.868938 -0.711614 3.336586
v -0.820880 0.406118 2.051188
v -1.728760 -0.687848 3.471548
v -0.680702 0.429884 2.186149
v -1.608970 -0.633165 3.616770
v -0.560912 0.484568 2.331372
v -1.514171 -0.549666 3.766672
v -0.466113 0.568067 2.481274
v -1.448007 -0.440560 3.915493
v -0.399949 0.677172 2.630095
v -1.413021 -0.310041 4.057514
v -0.364963 0.807692 2.772116
v -1.410556 -0.163123 4.187278
v -0.362498 0.954609 2.901879
v -1.440708 -0.005453 4.299797
v -0.392650 1.112279 3.014399
v -1.502318 0.156910 4.390747
v -0.454260 1.274642 3.105349
v -1.593018 0.317726 4.456634
v -0.544960 1.435458 3.171236
v -1.709322 0.470816 4.494925
v -0.661264 1.588548 3.209527
v -1.846762 0.610296 4.504149
v -0.798704 1.728028 3.218751
v -2.000055 0.730806 4.483951
v -0.951997 1.848538 3.198553
v -2.163311 0.827715 4.435108
v -1.115253 1.945447 3.149710
v -2.330255 0.897299 4.359496
v -1.282197 2.015031 3.074098
v -2.494473 0.936883 4.260022
v -1.446414 2.054616 2.974624
v -2.649652 0.944948 4.140508
v -1.601594 2.062680 2.855109
v -2.789830 0.921181 4.005546
v -1.741772 2.038914 2.720148
v -2.909621 0.866498 3.860323
v -1.861563 1.984230 2.574925
v -3.004419 0.782999 3.710422
v -1.956361 1.900732 2.425024
v -3.070583 0.673894 3.561601
v -2.022525 1.791626 2.276202
v -3.105570 0.543374 3.419580
v -2.057512 1.661107 2.134181
v -3.108034 0.396457 3.289816
v -2.059976 1.514189 2.004417
v -3.077883 0.238787 3.177297
v -2.029824 1.356519 1.891899
v -3.016273 0.076424 3.086346
v -1.968215 1.194156 1.800948
v -2.925573 -0.084393 3.020459
v -1.877515 1.033340 1.735061
v -2.809268 -0.237482 2.982168
v -1.761210 0.880250 1.696770
v -2.671829 -0.376962 2.972944
v -1.623770 0.740770 1.687546
v -2.518535 -0.497472 2.993142
v -1.470477 0.620260 1.707744
v -2.355279 -0.594381 3.041986
v -1.307222 0.523351 1.756587
v -2.188335 -0.663965 3.117597
v -1.140277 0.453767 1.832199
vt 1.000000 0.500000
vt 1.000000 1.000000
vt 0.968750 1.000000
vt 0.968750 0.500000
vt 0.937500 1.000000
vt 0.937500 0.500000
vt 0.906250 1.000000
vt 0.906250 0.500000
vt 0.875000 1.000000
vt 0.875000 0.500000
vt 0.843750 1.000000
vt 0.843750 0.500000
vt 0.812500 1.000000
vt 0.812500 0.500000
vt 0.781250 1.000000
vt 0.781250 0.500000
vt 0.750000 1.000000
vt 0.750000 0.500000
vt 0.718750 1.000000
vt 0.718750 0.500000
vt 0.687500 1.000000
vt 0.687500 0.500000
vt 0.656250 1.000000
vt 0.656250 0.500000
vt 0.625000 1.000000
vt 0.625000 0.500000
vt 0.593750 1.000000
vt 0.593750 0.500000
vt 0.562500 1.000000
vt 0.562500 0.500000
vt 0.531250 1.000000
vt 0.531250 0.500000
vt 0.500000 1.000000
vt 0.500000 0.500000
vt 0.468750 1.000000
vt 0.468750 0.500000
vt 0.437500 1.000000
vt 0.437500 0.500000
vt 0.406250 1.000000
vt 0.406250 0.500000
vt 0.375000 1.000000
vt 0.375000 0.500000
vt 0.343750 1.000000
vt 0.343750 0.500000
vt 0.312500 1.000000
vt 0.312500 0.500000
vt 0.281250 1.000000
vt 0.281250 0.500000
vt 0.250000 1.000000
vt 0.250000 0.500000
vt 0.218750 1.000000
vt 0.218750 0.500000
vt 0.187500 1.000000
vt 0.187500 0.500000
vt 0.156250 1.000000
vt 0.156250 0.500000
vt 0.125000 1.000000
vt 0.125000 0.500000
vt 0.093750 1.000000
vt 0.093750 0.500000
vt 0.062500 1.000000
vt 0.062500 0.500000
vt 0.296822 0.485388
vt 0.250000 0.490000
vt 0.203178 0.485388
vt 0.158156 0.471731
vt 0.116663 0.449553
vt 0.080294 0.419706
vt 0.050447 0.383337
vt 0.028269 0.341844
vt 0.014612 0.296822
vt 0.010000 0.250000
vt 0.014612 0.203178
vt 0.028269 0.158156
vt 0.050447 0.116663
vt 0.080294 0.080294
vt 0.116663 0.050447
vt 0.158156 0.028269
vt 0.203178 0.014612
vt 0.250000 0.010000
vt 0.296822 0.014612
vt 0.341844 0.028269
vt 0.383337 0.050447
vt 0.419706 0.080294
vt 0.449553 0.116663
vt 0.471731 0.158156
vt 0.485388 0.203178
vt 0.490000 0.250000
vt 0.485388 0.296822
vt 0.471731 0.341844
vt 0.449553 0.383337
vt 0.419706 0.419706
vt 0.383337 0.449553
vt 0.341844 0.471731
vt 0.031250 1.000000
vt 0.031250 0.500000
vt 0.000000 1.000000
vt 0.000000 0.500000
vt 0.750000 0.490000
vt 0.796822 0.485388
vt 0.841844 0.471731
vt 0.883337 0.449553
vt 0.919706 0.419706
vt 0.949553 0.383337
vt 0.971731 0.341844
vt 0.985388 0.296822
vt 0.990000 0.250000
vt 0.985388 0.203178
vt 0.971731 0.158156
vt 0.949553 0.116663
vt 0.919706 0.080294
vt 0.883337 0.050447
vt 0.841844 0.028269
vt 0.796822 0.014612
vt 0.750000 0.010000
vt 0.703178 0.014612
vt 0.658156 0.028269
vt 0.616663 0.050447
vt 0.580294 0.080294
vt 0.550447 0.116663
vt 0.528269 0.158156
vt 0.514612 0.203178
vt 0.510000 0.250000
vt 0.514612 0.296822
vt 0.528269 0.341844
vt 0.550447 0.383337
vt 0.580294 0.419706
vt 0.616663 0.449553
vt 0.658156 0.471731
vt 0.703178 0.485388
vn 0.3143 -0.8282 -0.4640
vn 0.4627 -0.8203 -0.3361
vn 0.5933 -0.7809 -0.1953
vn 0.7011 -0.7115 -0.0471
vn 0.7820 -0.6147 0.1030
vn 0.8328 -0.4943 0.2492
vn 0.8516 -0.3550 0.3857
vn 0.8377 -0.2019 0.5074
vn 0.7916 -0.0411 0.6097
vn 0.7151 0.1212 0.6885
vn 0.6111 0.2789 0.7408
vn 0.4836 0.4259 0.7647
vn 0.3375 0.5566 0.7592
vn 0.1785 0.6658 0.7245
vn 0.0126 0.7494 0.6619
vn -0.1538 0.8043 0.5740
vn -0.3143 0.8282 0.4640
vn -0.4627 0.8203 0.3361
vn -0.5933 0.7809 0.1953
vn -0.7011 0.7115 0.0471
vn -0.7820 0.6147 -0.1030
vn -0.8328 0.4943 -0.2492
vn -0.8516 0.3550 -0.3857
vn -0.8377 0.2019 -0.5074
vn -0.7916 0.0411 -0.6097
vn -0.7151 -0.1212 -0.6885
vn -0.6111 -0.2789 -0.7408
vn -0.4836 -0.4259 -0.7647
vn -0.3375 -0.5566 -0.7592
vn -0.1785 -0.6658 -0.7245
vn 0.5240 0.5589 -0.6427
vn -0.0126 -0.7494 -0.6619
vn 0.1538 -0.8043 -0.5740
vn -0.5240 -0.5589 0.6427
usemtl None
s off
f 1/1/1 2/2/1 4/3/1 3/4/1
f 3/4/2 4/3/2 6/5/2 5/6/2
f 5/6/3 6/5/3 8/7/3 7/8/3
f 7/8/4 8/7/4 10/9/4 9/10/4
f 9/10/5 10/9/5 12/11/5 11/12/5
f 11/12/6 12/11/6 14/13/6 13/14/6
f 13/14/7 14/13/7 16/15/7 15/16/7
f 15/16/8 16/15/8 18/17/8 17/18/8
f 17/18/9 18/17/9 20/19/9 19/20/9
f 19/20/10 20/19/10 22/21/10 21/22/10
f 21/22/11 22/21/11 24/23/11 23/24/11
f 23/24/12 24/23/12 26/25/12 25/26/12
f 25/26/13 26/25/13 28/27/13 27/28/13
f 27/28/14 28/27/14 30/29/14 29/30/14
f 29/30/15 30/29/15 32/31/15 31/32/15
f 31/32/16 32/31/16 34/33/16 33/34/16
f 33/34/17 34/33/17 36/35/17 35/36/17
f 35/36/18 36/35/18 38/37/18 37/38/18
f 37/38/19 38/37/19 40/39/19 39/40/19
f 39/40/20 40/39/20 42/41/20 41/42/20
f 41/42/21 42/41/21 44/43/21 43/44/21
f 43/44/22 44/43/22 46/45/22 45/46/22
f 45/46/23 46/45/23 48/47/23 47/48/23
f 47/48/24 48/47/24 50/49/24 49/50/24
f 49/50/25 50/49/25 52/51/25 51/52/25
f 51/52/26 52/51/26 54/53/26 53/54/26
f 53/54/27 54/53/27 56/55/27 55/56/27
f 55/56/28 56/55/28 58/57/28 57/58/28
f 57/58/29 58/57/29 60/59/29 59/60/29
f 59/60/30 60/59/30 62/61/30 61/62/30
f 4/63/31 2/64/31 64/65/31 62/66/31 60/67/31 58/68/31 56/69/31 54/70/31 52/71/31 50/72/31 48/73/31 46/74/31 44/75/31 42/76/31 40/77/31 38/78/31 36/79/31 34/80/31 32/81/31 30/82/31 28/83/31 26/84/31 24/85/31 22/86/31 20/87/31 18/88/31 16/89/31 14/90/31 12/91/31 10/92/31 8/93/31 6/94/31
f 61/62/32 62/61/32 64/95/32 63/96/32
f 63/96/33 64/95/33 2/97/33 1/98/33
f 1/99/34 3/100/34 5/101/34 7/102/34 9/103/34 11/104/34 13/105/34 15/106/34 17/107/34 19/108/34 21/109/34 23/110/34 25/111/34 27/112/34 29/113/34 31/114/34 33/115/34 35/116/34 37/117/34 39/118/34 41/119/34 43/120/34 45/121/34 47/122/34 49/123/34 51/124/34 53/125/34 55/126/34 57/127/34 59/128/34 61/129/34 63/130/34
