# Blender v3.0.0 OBJ File: ''
# www.blender.org
mtllib ground.mtl
o 円
v 0.000000 -4.234369 -96.630020
v -18.878109 -4.234369 -94.773300
v -37.030743 -4.234369 -89.274498
v -53.760307 -4.234369 -80.344925
v -68.423889 -4.234369 -68.327744
v -80.457977 -4.234369 -53.684765
v -89.400116 -4.234369 -36.978706
v -94.906654 -4.234369 -18.851585
v -96.765991 -4.234369 0.000004
v -94.906654 -4.234369 18.851582
v -89.400124 -4.234369 36.978703
v -80.457985 -4.234369 53.684757
v -68.423889 -4.234369 68.327744
v -53.760300 -4.234369 80.344933
v -37.030746 -4.234369 89.274498
v -18.878107 -4.234369 94.773308
v 0.000008 -4.234369 96.630020
v 18.878101 -4.234369 94.773308
v 37.030743 -4.234369 89.274498
v 53.760311 -4.234369 80.344917
v 68.423882 -4.234369 68.327744
v 80.457970 -4.234369 53.684780
v 89.400116 -4.234369 36.978722
v 94.906654 -4.234369 18.851587
v 96.765991 -4.234369 -0.000001
v 94.906654 -4.234369 -18.851591
v 89.400108 -4.234369 -36.978725
v 80.457993 -4.234369 -53.684746
v 68.423897 -4.234369 -68.327736
v 53.760311 -4.234369 -80.344925
v 37.030743 -4.234369 -89.274498
v 18.878099 -4.234369 -94.773308
vt 0.019215 0.645845
vt 0.354155 0.019215
vt 0.980785 0.354155
vt 0.000000 0.549246
vt 0.056906 0.263161
vt 0.000000 0.450754
vt 0.019215 0.354155
vt 0.111625 0.181269
vt 0.181268 0.111625
vt 0.263161 0.056906
vt 0.450754 0.000000
vt 0.736839 0.056906
vt 0.549246 0.000000
vt 0.645844 0.019215
vt 0.818731 0.111625
vt 0.888375 0.181269
vt 0.943094 0.263161
vt 1.000000 0.450754
vt 1.000000 0.549246
vt 0.980785 0.645845
vt 0.943094 0.736839
vt 0.888375 0.818731
vt 0.818731 0.888375
vt 0.736839 0.943094
vt 0.645845 0.980785
vt 0.549246 1.000000
vt 0.450754 1.000000
vt 0.354155 0.980785
vt 0.263161 0.943094
vt 0.181269 0.888375
vt 0.111625 0.818731
vt 0.056906 0.736839
vn 0.0000 1.0000 0.0000
usemtl マテリアル.001
s off
f 1/1/1 9/2/1 17/3/1
f 1/1/1 2/4/1 5/5/1
f 2/4/1 3/6/1 5/5/1
f 3/6/1 4/7/1 5/5/1
f 5/5/1 6/8/1 7/9/1
f 7/9/1 8/10/1 5/5/1
f 8/10/1 9/2/1 5/5/1
f 9/2/1 10/11/1 13/12/1
f 10/11/1 11/13/1 13/12/1
f 11/13/1 12/14/1 13/12/1
f 13/12/1 14/15/1 15/16/1
f 15/16/1 16/17/1 17/3/1
f 17/3/1 18/18/1 19/19/1
f 19/19/1 20/20/1 21/21/1
f 21/21/1 22/22/1 23/23/1
f 23/23/1 24/24/1 21/21/1
f 24/24/1 25/25/1 21/21/1
f 25/25/1 26/26/1 27/27/1
f 27/27/1 28/28/1 25/25/1
f 28/28/1 29/29/1 25/25/1
f 29/29/1 30/30/1 1/1/1
f 30/30/1 31/31/1 1/1/1
f 31/31/1 32/32/1 1/1/1
f 13/12/1 15/16/1 9/2/1
f 15/16/1 17/3/1 9/2/1
f 17/3/1 19/19/1 25/25/1
f 19/19/1 21/21/1 25/25/1
f 1/1/1 5/5/1 9/2/1
f 25/25/1 29/29/1 17/3/1
f 29/29/1 1/1/1 17/3/1
